<svg width="22" height="22" viewBox="0 0 22 22" fill="none" xmlns="http://www.w3.org/2000/svg">
<path fill-rule="evenodd" clip-rule="evenodd" d="M9.05373 1.34422C9.59657 0.881562 10.2865 0.627441 10.9997 0.627441C11.713 0.627441 12.4029 0.881562 12.9457 1.34422L14.2167 2.42822C14.3771 2.565 14.5766 2.6476 14.7867 2.66422L16.4517 2.79722C17.1624 2.85412 17.8295 3.16223 18.3336 3.66633C18.8377 4.17044 19.1458 4.83759 19.2027 5.54822L19.3357 7.21422C19.3526 7.424 19.4352 7.62312 19.5717 7.78322L20.6557 9.05422C21.1184 9.59706 21.3725 10.287 21.3725 11.0002C21.3725 11.7135 21.1184 12.4034 20.6557 12.9462L19.5717 14.2172C19.435 14.3776 19.3524 14.5771 19.3357 14.7872L19.2027 16.4522C19.1458 17.1629 18.8377 17.83 18.3336 18.3341C17.8295 18.8382 17.1624 19.1463 16.4517 19.2032L14.7857 19.3362C14.576 19.3531 14.3768 19.4356 14.2167 19.5722L12.9457 20.6562C12.4029 21.1189 11.713 21.373 10.9997 21.373C10.2865 21.373 9.59657 21.1189 9.05373 20.6562L7.78274 19.5722C7.62236 19.4355 7.42286 19.3529 7.21274 19.3362L5.54774 19.2032C4.8371 19.1463 4.16995 18.8382 3.66585 18.3341C3.16174 17.83 2.85363 17.1629 2.79674 16.4522L2.66374 14.7862C2.6469 14.5764 2.56431 14.3773 2.42774 14.2172L1.34374 12.9462C0.881074 12.4034 0.626953 11.7135 0.626953 11.0002C0.626953 10.287 0.881074 9.59706 1.34374 9.05422L2.42774 7.78322C2.56451 7.62284 2.64711 7.42335 2.66374 7.21322L2.79674 5.54822C2.85363 4.83759 3.16174 4.17044 3.66585 3.66633C4.16995 3.16223 4.8371 2.85412 5.54774 2.79722L7.21374 2.66422C7.42351 2.64739 7.62263 2.5648 7.78274 2.42822L9.05373 1.34422ZM14.7067 9.70722C14.8889 9.51862 14.9897 9.26602 14.9874 9.00382C14.9851 8.74163 14.88 8.49081 14.6946 8.30541C14.5091 8.12 14.2583 8.01483 13.9961 8.01255C13.7339 8.01027 13.4813 8.11107 13.2927 8.29322L9.99973 11.5862L8.70673 10.2932C8.51813 10.1111 8.26553 10.0103 8.00333 10.0125C7.74114 10.0148 7.49032 10.12 7.30492 10.3054C7.11951 10.4908 7.01434 10.7416 7.01206 11.0038C7.00978 11.266 7.11058 11.5186 7.29274 11.7072L9.29274 13.7072C9.48026 13.8947 9.73457 14 9.99973 14C10.2649 14 10.5192 13.8947 10.7067 13.7072L14.7067 9.70722Z" fill="white"/>
</svg>
