<svg width="8" height="15" viewBox="0 0 8 15" fill="none" xmlns="http://www.w3.org/2000/svg">
<path d="M6.01438 0.901367C6.25055 0.92723 6.46048 0.92723 6.69665 0.953094C6.8541 0.953094 7.01154 0.978957 7.16899 1.00482C7.16899 1.70313 7.16899 2.37557 7.16899 3.09974C7.1165 3.09974 7.03778 3.09974 6.9853 3.09974C6.5392 3.09974 6.0931 3.09974 5.64701 3.12561C5.09594 3.15147 4.78104 3.43597 4.7548 3.9791C4.72856 4.54809 4.7548 5.11708 4.7548 5.71193C5.51579 5.71193 6.30303 5.71193 7.09027 5.71193C6.9853 6.48783 6.88033 7.26373 6.77537 8.03963C6.0931 8.03963 5.43707 8.03963 4.7548 8.03963C4.7548 10.0311 4.7548 12.0226 4.7548 14.014C3.94133 14.014 3.12786 14.014 2.31438 14.014C2.31438 12.0226 2.31438 10.057 2.31438 8.03963C1.63211 8.03963 0.949847 8.03963 0.267578 8.03963C0.267578 7.26373 0.267578 6.48783 0.267578 5.71193C0.949847 5.71193 1.60587 5.71193 2.31438 5.71193C2.31438 5.63435 2.31438 5.60848 2.31438 5.55676C2.31438 4.93604 2.31438 4.34118 2.31438 3.72046C2.34062 2.99629 2.57679 2.32385 3.10161 1.75485C3.49523 1.34104 3.99381 1.10827 4.57112 0.978957C4.72857 0.953094 4.88601 0.92723 5.01721 0.901367C5.33211 0.901367 5.67324 0.901367 6.01438 0.901367Z" fill="white"/>
</svg>
