<svg width="15" height="15" viewBox="0 0 15 15" fill="none" xmlns="http://www.w3.org/2000/svg">
<path d="M8.64042 14.6365C7.66963 14.6365 6.75594 14.6365 5.78516 14.6365C5.78516 11.5814 5.78516 8.52628 5.78516 5.4426C6.67029 5.4426 7.58397 5.4426 8.49765 5.4426C8.49765 5.84234 8.49765 6.24207 8.49765 6.67036C8.52621 6.64181 8.55475 6.64181 8.55475 6.64181C9.15436 5.67102 10.0395 5.24273 11.153 5.21418C11.7812 5.18563 12.4094 5.27129 12.9804 5.55681C13.7228 5.89944 14.1511 6.5276 14.3795 7.29852C14.5793 7.92668 14.6365 8.55483 14.6365 9.18299C14.6365 10.9533 14.6365 12.7235 14.6365 14.4938C14.6365 14.5223 14.6365 14.5509 14.6365 14.5794C13.6942 14.5794 12.752 14.5794 11.7812 14.5794C11.7812 14.5223 11.7812 14.4652 11.7812 14.3796C11.7812 12.8663 11.7812 11.3815 11.7812 9.86825C11.7812 9.52562 11.7526 9.18299 11.6955 8.84036C11.5242 7.89813 10.8961 7.58405 10.0395 7.69826C9.24002 7.78392 8.81172 8.26931 8.66896 9.12589C8.61186 9.43997 8.61186 9.75404 8.61186 10.0681C8.61186 11.4958 8.61186 12.9519 8.61186 14.3796C8.64041 14.4938 8.64042 14.5509 8.64042 14.6365Z" fill="white"/>
<path d="M1.12891 5.4707C2.07114 5.4707 3.01338 5.4707 3.95561 5.4707C3.95561 8.52583 3.95561 11.581 3.95561 14.6361C3.01338 14.6361 2.07114 14.6361 1.12891 14.6361C1.12891 11.581 1.12891 8.52583 1.12891 5.4707Z" fill="white"/>
<path d="M4.18589 2.52966C4.18589 3.44335 3.44352 4.18571 2.55839 4.21427C1.64471 4.21427 0.902344 3.4719 0.902344 2.55821C0.902344 1.64453 1.64471 0.902164 2.55839 0.902164C3.44352 0.873612 4.18589 1.61598 4.18589 2.52966Z" fill="white"/>
</svg>
