<svg width="27" height="27" viewBox="0 0 27 27" fill="none" xmlns="http://www.w3.org/2000/svg">
<path fill-rule="evenodd" clip-rule="evenodd" d="M13.46 26.92C6.02743 26.92 0 20.8926 0 13.46C0 6.02743 6.02743 0 13.46 0C20.8926 0 26.92 6.02743 26.92 13.46C26.92 20.8926 20.8926 26.92 13.46 26.92ZM13.46 4.70506C17.1421 4.70506 20.1269 7.6899 20.1269 11.372C20.1269 15.054 13.46 22.2148 13.46 22.2148C13.46 22.2148 6.79306 15.054 6.79306 11.372C6.79306 7.6899 9.77789 4.70506 13.46 4.70506ZM13.46 8.72314C14.856 8.72314 15.9881 9.85526 15.9881 11.2514C15.9881 12.6474 14.856 13.7795 13.46 13.7795C12.064 13.7795 10.9319 12.6474 10.9319 11.2514C10.9319 9.85526 12.064 8.72314 13.46 8.72314Z" fill="white"/>
</svg>
