<svg width="27" height="27" viewBox="0 0 27 27" fill="none" xmlns="http://www.w3.org/2000/svg">
<path d="M22.9762 3.94091C17.719 -1.31475 9.19656 -1.31349 3.94091 3.9438C-1.31475 9.20109 -1.31349 17.7235 3.9438 22.9791C9.20109 28.2348 17.7235 28.2335 22.9791 22.9762C25.5032 20.4514 26.9208 17.0272 26.92 13.4571C26.9193 9.8876 25.5007 6.46455 22.9762 3.94091ZM20.3847 18.7496L20.3829 18.7514V18.747L19.7009 19.4244C18.8189 20.3176 17.5344 20.685 16.3135 20.3935C15.0834 20.0643 13.9141 19.5402 12.8498 18.8412C11.861 18.2092 10.9447 17.4705 10.1174 16.6382C9.35624 15.8826 8.67241 15.0529 8.07597 14.1616C7.42358 13.2024 6.90721 12.1576 6.54153 11.0568C6.12232 9.76357 6.46971 8.34454 7.43888 7.39119L8.23749 6.59258C8.45953 6.36954 8.82032 6.36875 9.0433 6.59079L9.04509 6.59258L11.5666 9.11407C11.7896 9.33611 11.7904 9.6969 11.5684 9.91988L11.5666 9.92167L10.086 11.4023C9.66115 11.8225 9.60773 12.4902 9.96037 12.9726C10.4959 13.7076 11.0885 14.3991 11.7326 15.041C12.4508 15.7623 13.2315 16.4184 14.0657 17.0017C14.5477 17.3379 15.2011 17.2812 15.618 16.8671L17.0493 15.4134C17.2713 15.1904 17.6321 15.1896 17.8551 15.4116L17.8569 15.4134L20.3829 17.9439C20.606 18.1659 20.6068 18.5266 20.3847 18.7496Z" fill="white"/>
</svg>
