<svg width="15" height="13" viewBox="0 0 15 13" fill="none" xmlns="http://www.w3.org/2000/svg">
<path d="M0.732422 10.8458C2.25307 10.9664 3.65675 10.6044 4.88497 9.63888C3.59826 9.51819 2.72097 8.8544 2.25307 7.58718C2.66248 7.64752 3.07187 7.64752 3.53977 7.52683C2.83793 7.3458 2.31156 6.98373 1.90215 6.50098C1.49275 5.95788 1.2588 5.35444 1.2588 4.63031C1.6682 4.81134 2.07761 4.99238 2.54551 4.99238C1.90216 4.50962 1.55124 3.96653 1.37578 3.2424C1.20032 2.51827 1.31729 1.79414 1.66821 1.13035C3.18886 3.00102 5.11891 4.02687 7.51686 4.2079C7.51686 3.90618 7.45837 3.66481 7.51686 3.36309C7.57535 2.1562 8.45264 1.00966 9.56389 0.707943C10.6166 0.406222 11.5524 0.707943 12.3127 1.43207C12.3712 1.49242 12.4297 1.49242 12.4882 1.49242C13.0731 1.37173 13.5995 1.13035 14.1843 0.828631C13.9504 1.49242 13.541 2.03551 13.0146 2.39758C13.0146 2.39758 13.0146 2.39758 13.0146 2.45792C13.2485 2.39758 13.541 2.33723 13.7749 2.27689C14.0088 2.21655 14.3013 2.09586 14.5352 2.03551C14.1843 2.51827 13.8334 3.00102 13.3655 3.36309C13.19 3.48377 13.1316 3.60446 13.1316 3.84584C13.1316 5.17341 12.8391 6.38029 12.3127 7.58718C11.6109 9.03543 10.6751 10.2423 9.32994 11.0871C8.39416 11.6906 7.34139 12.0526 6.23015 12.2337C5.46982 12.3544 4.7095 12.3544 3.94918 12.2337C2.77945 11.8716 1.72669 11.5095 0.732422 10.8458Z" fill="white"/>
</svg>
