<svg width="142" height="87" viewBox="0 0 142 87" fill="none" xmlns="http://www.w3.org/2000/svg">
<path fill-rule="evenodd" clip-rule="evenodd" d="M141.89 1.85802C141.917 1.30639 141.491 0.837388 140.94 0.810465C140.388 0.783542 139.919 1.2088 139.892 1.76034L139.892 1.76053L139.892 1.76097L139.892 1.76468L139.891 1.78178L139.887 1.85415C139.883 1.91915 139.877 2.01731 139.868 2.14686C139.85 2.40597 139.821 2.79054 139.776 3.28623C139.685 4.27774 139.531 5.71308 139.275 7.47763C138.763 11.0087 137.849 15.8479 136.238 21.082C133.004 31.5891 127.026 43.4957 116.072 49.7681C109.444 53.5637 101.959 54.7512 95.6308 53.9492C95.8195 53.206 95.9843 52.465 96.1238 51.7309C96.7521 48.424 96.8817 45.1853 96.3329 42.4441C95.7845 39.7048 94.5304 37.3481 92.2958 36.0295C89.947 34.6434 86.8535 34.2835 84.2702 35.1846C81.6134 36.1113 79.5264 38.3715 79.3819 42.0363C79.1134 48.8485 84.7783 53.5246 92.0839 55.3247C92.4169 55.4068 92.7542 55.4832 93.0954 55.5539C91.5314 60.5083 88.9255 65.3163 85.7959 68.4919C71.6119 82.8846 50.8876 84.8229 33.4945 83.0645C24.8222 82.1877 17.0426 80.3975 11.429 78.825C8.62348 78.0392 6.36227 77.3086 4.80495 76.7755C4.44721 76.6531 4.12664 76.541 3.84522 76.4412L10.7361 71.9433C11.1986 71.6414 11.3288 71.0218 11.0269 70.5593C10.725 70.0969 10.1054 69.9667 9.64289 70.2685L0.733768 76.0838C0.2878 76.3749 0.148211 76.9644 0.416301 77.4246L5.3448 85.884C5.62283 86.3612 6.23505 86.5227 6.71226 86.2446C7.18946 85.9666 7.35093 85.3544 7.07292 84.8772L3.27693 78.3616C3.54015 78.4547 3.83403 78.5571 4.15722 78.6677C5.7457 79.2115 8.04321 79.9536 10.8895 80.7509C16.5796 82.3448 24.476 84.1629 33.2933 85.0543C50.8793 86.8323 72.3882 84.9462 87.2204 69.8958C90.6675 66.398 93.4516 61.1879 95.0839 55.8944C101.903 56.826 109.954 55.5761 117.066 51.5037C128.682 44.8523 134.864 32.3456 138.149 21.6703C139.798 16.3133 140.732 11.369 141.254 7.76441C141.516 5.96115 141.674 4.49061 141.768 3.4682C141.814 2.95693 141.845 2.55753 141.863 2.28441C141.873 2.14784 141.879 2.04283 141.884 1.97116L141.888 1.88891L141.889 1.86697L141.89 1.86086L141.89 1.85903C141.89 1.85846 141.89 1.85802 140.891 1.80927L141.89 1.85802ZM94.159 51.3575C94.0162 52.109 93.8456 52.8668 93.6492 53.6257C93.2818 53.5518 92.9194 53.4708 92.5624 53.3828C85.6348 51.6758 81.1676 47.5126 81.3804 42.1151C81.4905 39.3216 82.9996 37.746 84.9289 37.073C86.9316 36.3745 89.4141 36.6512 91.2793 37.7519C92.853 38.6805 93.8888 40.4242 94.3718 42.8367C94.8544 45.2472 94.7567 48.2116 94.159 51.3575Z" fill="#F19041"/>
</svg>
